<svg xmlns="http://www.w3.org/2000/svg" version="1.1" xmlns:xlink="http://www.w3.org/1999/xlink" viewBox="0 0 700 700" style="overflow: hidden; display: block;" width="700" height="700"><defs></defs><g id="two-0" transform="matrix(1 0 0 1 0 0)" opacity="1"><path transform="matrix(1 0 0 1 350 350)" id="two-300" d="M 274.397996 80.570521 C 235.826969 100.142658 174.96713 62.397152 143.869643 92.459405 C 128.499717 107.317668 138.076705 135.479705 135.81355 156.737192 C 131.675316 195.607019 161.793595 260.299015 125.468453 274.737589 C 85.025619 290.81287 69.826745 179.932249 26.903361 187.116991 C -21.079702 195.148649 2.683428 323.15924 -45.377569 315.607922 C -95.145038 307.788485 -46.931372 207.287843 -75.815326 166.012405 C -85.675446 151.922201 -104.53695 145.783178 -120.233822 138.757226 C -140.747484 129.575268 -164.470323 127.204358 -185.469109 119.193758 C -214.410135 108.153358 -245.661181 97.941027 -270.492242 79.423688 C -298.607408 58.457282 -337.03167 34.833962 -341.111842 0 C -344.88258 -32.192215 -314.045438 -60.581655 -294.576836 -86.495563 C -276.9933 -109.900332 -255.737264 -132.575817 -231.247492 -148.613739 C -208.647141 -163.414312 -180.584186 -169.650748 -155.340105 -179.272038 C -134.659323 -187.154116 -111.596598 -191.236349 -92.212236 -201.91663 C -71.383986 -213.392457 -57.322436 -237.026377 -35.406341 -246.256508 C -13.243006 -255.590766 13.633838 -262.44146 36.810894 -256.025396 C 60.707655 -249.410098 80.582569 -228.909245 95.491065 -209.096268 C 109.851798 -190.011254 101.900079 -152.927435 123.271411 -142.262793 C 173.043804 -117.425561 249.722428 -225.843868 286.545319 -184.151496 C 313.09432 -154.091639 230.300669 -109.418313 242.02953 -71.066283 C 254.137277 -31.475336 340.336058 -41.087893 345.417954 -0.000001 C 349.768525 35.175023 306.004718 64.532288 274.397996 80.570521 Z " fill="hsl(205, 69%, 50%)" stroke="undefined" stroke-width="1" stroke-opacity="1" fill-opacity="1" visibility="visible" stroke-linecap="butt" stroke-linejoin="miter" stroke-miterlimit="4"></path></g></svg>