<svg xmlns="http://www.w3.org/2000/svg" version="1.1" xmlns:xlink="http://www.w3.org/1999/xlink" viewBox="0 0 700 700" style="overflow: hidden; display: block;" width="700" height="700"><defs></defs><g id="two-0" transform="matrix(1 0 0 1 0 0)" opacity="1"><path transform="matrix(1 0 0 1 350 350)" id="two-352" d="M 320.834922 73.228477 C 311.682319 113.868803 227.138947 66.453732 196.418453 94.590141 C 183.515566 106.407689 182.884724 128.361986 182.901156 145.858805 C 182.941304 188.608167 247.884186 242.401875 216.162716 271.059472 C 188.768041 295.808186 145.980327 218.337092 111.502483 231.537292 C 84.237748 241.975879 99.931111 308.631906 70.771977 310.072292 C 28.021692 312.184046 35.350063 225.511012 0 201.377646 C -12.215324 193.038288 -29.766184 187.879439 -43.886751 192.280416 C -88.743301 206.260922 -95.227667 296.553743 -142.194873 295.270694 C -166.69264 294.601464 -184.207447 262.527555 -190.462428 238.832329 C -199.284374 205.412884 -152.240629 165.324357 -170.543314 136.003753 C -183.523004 115.210501 -226.352616 135.315138 -242.260464 116.66649 C -255.166469 101.536878 -251.884526 76.347006 -248.580735 56.73693 C -245.144532 36.340904 -217.703095 20.243342 -221.947207 0 C -228.997875 -33.629906 -305.277325 -34.544956 -300.325511 -68.547339 C -296.089488 -97.634633 -236.024508 -81.429112 -219.337253 -105.627254 C -206.979556 -123.547116 -224.394467 -151.816519 -214.98708 -171.446475 C -206.239285 -189.700091 -188.625523 -205.465742 -169.815052 -212.94134 C -149.317986 -221.087221 -122.619184 -203.801308 -102.983599 -213.847646 C -82.560611 -224.296849 -84.316826 -266.847039 -61.550138 -269.668772 C -35.507437 -272.896538 -25.940354 -215.350919 -0.000001 -219.318133 C 45.526785 -226.280818 31.865856 -346.579672 76.674609 -335.933412 C 122.733052 -324.990235 50.496345 -213.965718 93.14911 -193.426122 C 135.805983 -172.884548 168.040197 -276.53123 214.846616 -269.409136 C 239.879933 -265.60005 249.263356 -231.167326 264.9009 -211.25142 C 280.495626 -191.390047 311.433736 -174.170077 309.40142 -148.999872 C 305.608725 -102.027393 223.088218 -92.559827 208.791797 -47.655366 C 203.954983 -32.463134 208.25247 -13.495435 216.741987 -0.000001 C 239.105377 35.550156 330.062448 32.255466 320.834922 73.228477 Z " fill="hsl(6, 79%, 58%)" stroke="undefined" stroke-width="1" stroke-opacity="1" fill-opacity="1" visibility="visible" stroke-linecap="butt" stroke-linejoin="miter" stroke-miterlimit="4"></path></g></svg>