<svg xmlns="http://www.w3.org/2000/svg" version="1.1" xmlns:xlink="http://www.w3.org/1999/xlink" viewBox="0 0 1422 800" style="overflow: hidden; display: block;" width="1422" height="800"><defs></defs><g id="two-0" transform="matrix(1 0 0 1 0 0)" opacity="1"></g><path d="M 131.21622324235292 149.13869079954344 Q 131.21622324235292 149.13869079954344 132.34413475440005 156.93054798337653 133.4720462664472 164.7224051672096 135.11313878585943 176.92801922743007 136.75423130527167 189.13363328765055 139.72812789055286 205.5038004935143 142.70202447583407 221.87396769937803 145.48546342380695 236.48588710106208 148.2689023717798 251.0978065027461 151.07548421402137 265.4181417150671 153.88206605626294 279.7384769273881 156.2497420570807 292.61304340929865 158.6174180578985 305.4876098912092 158.08675041914853 318.0310793946051 157.55608278039858 330.574548898001 157.55118919889392 330.5755749876936 157.54629561738926 330.5766010773862 157.5414020358846 330.57762716707884 157.53650845437994 330.5786532567714 153.86016643081268 328.1511257156957 150.18382440724545 325.7235981746199 148.33785382938933 316.70565196585073 146.4918832515332 307.6877057570815 144.17205058118589 294.9419694649096 141.85221791083853 282.1962331727377 139.03014171696017 267.78874302604595 136.2080655230818 253.38125287935418 133.4226092097287 238.7705617493259 130.63715289637557 224.15987061929766 127.55784653478294 207.45961347298731 124.47854017319031 190.75935632667696 122.87206113946775 178.63093003987774 121.26558210574517 166.5025037530785 120.12122179009455 158.7130496652441 118.97686147444395 150.92359557740969 118.95898825865598 150.1783376324666 118.941115042868 149.4330796875235 119.1021186894751 148.70520148196806 119.2631223360822 147.9773232764126 119.59364530557885 147.30912912575087 119.92416827507549 146.64093497508915 120.40500055694497 146.0712603547526 120.88583283881445 145.50158573441604 121.48902843824271 145.06354016010465 122.09222403767099 144.62549458579326 122.78272519807823 144.34453728686753 123.47322635848548 144.06357998794178 124.21090111998578 143.95604021581596 124.9485758814861 143.8485004436901 125.69055055228156 143.9206284149729 126.43252522307704 143.99275638625565 127.13567620043949 144.24036001986718 127.83882717780196 144.4879636534787 128.46228729388972 144.8966522145998 129.08574740997747 145.30534077572094 129.59328113355033 145.85136126597718 130.1008148571232 146.39738175623344 130.46292430432075 147.04899943907645 130.8250337515183 147.70061712191946 131.02067310425576 148.41995994700625 131.21631245699325 149.13930277209306 131.2162678496731 149.13899678581825 Z" fill="hsl(10, 75%, 40%)"></path><path d="M 85.20885564069245 230.88284887965918 Q 85.20885564069245 230.88284887965918 85.3763503370898 223.90375810274242 85.54384503348714 216.92466732582565 86.6659726910824 202.28180193423157 87.78810034867765 187.63893654263745 89.41927273554185 174.2465251107196 91.05044512240607 160.85411367880175 94.83948727101497 148.2679871389146 98.62852941962387 135.68186059902746 104.01982108909125 126.15275342185262 109.41111275855863 116.62364624467779 118.5053785876712 110.03686723099129 127.59964441678378 103.4500882173048 140.2382582397277 100.79528101541945 152.87687206267162 98.1404738135341 165.52432556894485 101.38636984250384 178.17177907521804 104.63226587147358 190.04313419010043 111.59966584748602 201.91448930498282 118.56706582349845 212.20151728262428 127.5542600448253 222.48854526026574 136.54145426615216 229.64205422443126 144.43194465972374 236.79556318859682 152.32243505329535 242.7854396187413 161.95189827207838 248.7753160488858 171.58136149086144 246.96212564340613 182.96403061079803 245.14893523792642 194.34669973073463 234.44629781183636 202.21684331496846 223.7436603857463 210.08698689920226 211.5813731762214 214.23252282576595 199.41908596669654 218.37805875232968 189.52848070995813 221.08579092229394 179.63787545321972 223.79352309225817 170.26425786570536 225.2592763833626 160.89064027819103 226.725029674467 173.5492538968341 232.029843166114 186.2078675154772 237.33465665776097 197.23239368065043 245.61617194042816 208.2569198458237 253.89768722309535 217.6340824576149 260.77597513222065 227.01124506940616 267.6542630413459 235.9371279035069 275.05559796459465 244.86301073760765 282.4569328878433 249.53787682467964 290.2081595675214 254.21274291175166 297.9593862471996 254.20969772925497 297.96335195817767 254.2066525467583 297.9673176691558 254.20360736426164 297.97128338013397 254.20056218176495 297.97524909111206 245.48944491153588 295.11060856395284 236.77832764130684 292.24596803679367 228.1449123980939 285.0883931922334 219.51149715488097 277.9308183476731 210.0478676850235 271.0159331170885 200.584238215166 264.10104788650386 189.70132761760567 256.0140679292809 178.8184170200453 247.92708797205793 168.75598334422673 241.38806885748107 158.69354966840817 234.84904974290424 152.25291026989612 227.86453634369866 145.81227087138407 220.88002294449308 157.18221641904194 216.81124065146037 168.55216196669983 212.74245835842763 178.6171306004049 210.58782406562244 188.68209923410996 208.4331897728173 199.73839878473677 204.9405227890467 210.79469833536362 201.4478558052761 220.3341250854665 196.7355218292666 229.87355183556937 192.02318785325704 232.41973895079846 182.1159400398127 234.96592606602755 172.20869222636833 228.10239675425882 162.74041399600765 221.2388674424901 153.27213576564694 213.06902913393245 145.17430943052986 204.8991908253748 137.07648309541278 194.70718671697665 129.4620367214982 184.5151826085785 121.84759034758362 174.16771124886014 117.13107403381153 163.82023988914176 112.41455772003944 153.56841565136438 111.9117114791311 143.31659141358702 111.40886523822277 131.57341380125797 117.46379458150689 119.83023618892895 123.518723924791 115.04456769279278 131.8079493766454 110.25889919665661 140.09717482849982 106.79618148537647 151.39466512659962 103.33346377409632 162.69215542469942 101.74508266296891 175.72974264119014 100.1567015518415 188.76732985768086 99.08272071294306 202.9911073737157 98.00873987404461 217.2148848897505 97.85162516110967 224.19404840055347 97.69451044817474 231.17321191135645 97.58642944505097 231.9181289289454 97.4783484419272 232.6630459465344 97.19513240077143 233.36044937380012 96.91191635961566 234.05785280106582 96.47002581004674 234.6672095180482 96.0281352604778 235.2765662350306 95.45325290199877 235.76246040070816 94.87837054351974 236.24835456638573 94.20390856581616 236.58254598901965 93.52944658811258 236.91673741165354 92.79460475301804 237.07980287005842 92.05976291792349 237.24286832846326 91.30725026742007 237.22533045053498 90.55473761691667 237.2077925726067 89.8282902216083 237.0106706606345 89.10184282629993 236.81354874866227 88.4436818429339 236.4482995374317 87.78552085956788 236.0830503262011 87.233898635421 235.57090211703002 86.68227641127412 235.05875390785891 86.26925325593166 234.42947277872753 85.8562301005892 233.80019164959617 85.60581093924549 233.09035144929626 85.35539177790176 232.38051124899636 85.28213098397995 231.63136792332105 85.20887019005815 230.88222459764575 85.2088629153753 230.88253673865245 Z" fill="hsl(10, 75%, 40%)"></path><path d="M 325.79199610019805 261.7979842584317 Q 325.79199610019805 261.7979842584317 321.0846146057037 259.85235858432975 316.3772331112093 257.90673291022784 305.9441884358712 255.1679964628188 295.5111437605331 252.42926001540977 285.2891462619667 254.64640009391167 275.0671487634004 256.8635401724136 273.1202587203892 268.8825962919773 271.17336867737794 280.90165241154097 275.5439550448535 290.831512527666 279.914541412329 300.76137264379105 287.51173664928524 306.275496472387 295.1089318862415 311.78962030098285 304.6734961868219 313.1853365871178 314.2380604874024 314.5810528732527 323.14044682969893 307.6289386521562 332.0428331719954 300.6768244310597 334.8551681863802 291.74268936035367 337.667503200765 282.8085542896476 336.37827136283124 274.0561299018269 335.08903952489754 265.3037055140062 334.9602042659914 264.5242150080451 334.8313690070853 263.744724502084 334.89282781390966 262.9570527507277 334.954286620734 262.16938099937147 335.2024675045486 261.4193075218175 335.45064838836316 260.66923404426353 335.8711270645399 260.0003531462693 336.29160574071665 259.3314722482751 336.85994396884007 258.7826593190593 337.42828219696355 258.2338463898435 338.1114481325119 257.836998462638 338.7946140680602 257.4401505354325 339.55290207476094 257.2183324304123 340.31119008146163 256.9965143253921 341.10052842473726 256.9626181212431 341.88986676801295 256.9287219170941 342.6643790662655 257.084717662794 343.43889136451804 257.2407134084939 344.1535629265827 257.5775346239732 344.8682344886474 257.91435583945247 345.48152856975827 258.41242645984204 346.09482265086916 258.9104970802316 346.5710945702166 259.5408692176727 347.04736648956407 260.17124135511375 347.3589353008181 260.8972777513603 347.6705041120721 261.62331414760683 352.3740158252956 272.37043356086616 357.0775275385191 283.1175529741255 362.9137920730674 292.22142790599366 368.7500566076157 301.3253028378619 374.52680519803243 308.7203722326339 380.3035537884491 316.1154416274059 380.4256271220132 320.80952027799447 380.5477004555773 325.50359892858296 380.54413992843126 325.50710929130526 380.5405794012852 325.5106196540276 380.5370188741391 325.51413001674996 380.5334583469931 325.51764037947225 375.3853132121051 324.8661871273039 370.2371680772171 324.21473387513555 364.1034388912981 316.36211936320177 357.969709705379 308.509504851268 351.7581360952015 298.8694733974934 345.5465624850241 289.2294419437187 340.31789304619826 277.26688825627485 335.08922360737245 265.304334568831 334.96031040006005 264.5248569502932 334.8313971927476 263.74537933175543 334.89277723208966 262.95770143845687 334.9541572714317 262.1700235451583 335.20226314665774 261.41992525326634 335.45036902188383 260.6698269613744 335.8707808078685 260.000904018857 336.29119259385317 259.3319810763397 336.85947593784203 258.7831113160452 337.42775928183096 258.23424155575077 338.1108855291708 257.83732531393605 338.7940117765106 257.4404090721214 339.5522775976094 257.21851513940976 340.3105434187083 256.9966212066981 341.09987836841685 256.9626460688844 341.8892133181254 256.92867093107066 342.6637412120799 257.08458922476086 343.43826910603445 257.24050751845107 344.1529743466473 257.57725726509017 344.86767958726006 257.91400701172927 345.4810234723665 258.41201630022044 346.09436735747283 258.9100255887117 346.57070231165255 259.540350095809 347.04703726583233 260.17067460290633 347.35867867916795 260.8966798386416 347.67032009250363 261.62268507437693 348.5974374896643 265.3504332802811 349.52455488682494 269.0781814861853 349.98150286935015 278.88619789813424 350.43845085187536 288.6942143100832 346.3214358907912 298.71417195559224 342.204420929707 308.73412960110124 333.16008509747763 316.58968616520394 324.11574926524827 324.44524272930664 314.82417160783154 325.98610042581845 305.5325939504149 327.52695812233026 293.8216693345277 323.4519727563909 282.11074471864055 319.3769873904516 273.2331592242774 310.1175901141056 264.3555737299142 300.85819283775965 261.3485891111982 291.52419823623165 258.3416044924821 282.19020363470366 259.5203023919719 268.4870265572264 260.69900029146163 254.78384947974916 268.11556292456055 248.87441035402117 275.5321255576595 242.96497122829317 286.3664439737606 241.38581971982268 297.2007623898617 239.80666821135216 309.20985394901857 243.00478837504946 321.21894550817547 246.20290853874675 325.9252666961762 248.15261167629035 330.63158788417695 250.1023148138339 331.2961892851325 250.47684048816154 331.9607906860881 250.85136616248914 332.51644609692596 251.37406260143752 333.0721015077638 251.89675904038586 333.4865162098987 252.5372471023645 333.9009309120336 253.17773516434312 334.1500191035062 253.89878965309663 334.3991072949789 254.61984414185014 334.4683919583975 255.37955733661357 334.5376766218161 256.139270531377 334.4231309292875 256.8934878655757 334.3085852367589 257.6477051997744 334.01686658931476 258.35259152650804 333.72514794187066 259.0574778532417 333.2732110410068 259.6720651460816 332.8212741401429 260.28665243892146 332.2353855797717 260.7752208555314 331.64949701940037 261.26378927214137 330.96370867017833 261.5979431931928 330.27792032095635 261.9320971142442 329.532090233962 262.0924154981454 328.78626014696766 262.2527338820466 328.0237360018998 262.22989901679273 327.2612118568319 262.2070641515388 326.52631159282885 262.0024032005713 325.7914113288258 261.79774224960374 325.7917037145119 261.7978632540177 Z" fill="hsl(10, 75%, 40%)"></path><path d="M 391.46954723004734 250.29377490224618 Q 391.46954723004734 250.29377490224618 394.823403533798 260.8612419694851 398.1772598375487 271.428709036724 403.09012858149566 285.83312080033016 408.0029973254426 300.2375325639363 410.25051874891426 303.2321973036625 412.49804017238597 306.22686204338856 412.7530542206663 306.9240442806821 413.00806826894666 307.62122651797563 413.0888197656477 308.35917938408465 413.1695712623487 309.0971322501936 413.071366926688 309.8329658898673 412.97316259102723 310.56879952954097 412.7017100636075 311.25974725706845 412.4302575361878 311.95069498459594 412.0013336506569 312.5565988855893 411.57240976512594 313.1625027865827 411.01094359786373 313.648147697848 410.4494774306015 314.13379260911324 409.7881014216297 314.47095282558973 409.1267254126579 314.80811304206617 408.4038787666925 314.9771927961308 407.68103212072714 315.1462725501955 406.93872671879456 315.1374449185979 406.1964213168619 315.1286172870004 405.47779998379946 314.94239533210384 404.759178650737 314.7561733772073 404.1060076921866 314.4033803277799 403.45283673363616 314.05058727835257 402.9030784763978 313.551727483003 402.35332021915946 313.0528676876534 401.9389266389742 312.4369349011262 401.52453305878885 311.821002114599 400.57306363596365 301.2223313881584 399.6215942131384 290.62366066171774 398.576782206856 279.3280882151786 397.5319702005736 268.0325157686395 399.623096237949 258.0936018309778 401.71422227532446 248.15468789331604 413.0066241538601 251.32721101306157 424.2990260323957 254.49973413280713 429.53377474302414 263.1204546790108 434.76852345365256 271.7411752252145 439.1154812458641 282.9396933030988 443.4624390380756 294.1382113809832 444.81092163319875 299.01639376632716 446.1594042283218 303.8945761516711 446.253434378844 304.67289201385023 446.3474645293662 305.45120787602934 446.25249317085536 306.22940945119444 446.15752181234456 307.00761102635954 445.8790686846196 307.74046920239834 445.6006155568946 308.4733273784372 445.1548643688218 309.11824840372526 444.70911318074906 309.76316942901326 444.1219710123229 310.28267046325925 443.5348288438968 310.80217149750524 442.8404204255329 311.1660591161901 442.14601200716896 311.52994673487507 441.38469638876927 311.7170717725038 440.6233807703696 311.9041968101325 439.83940565144576 311.90368355072593 439.055430532522 311.9031702913194 438.2943605838208 311.71504856553844 437.5332906351196 311.5269268397575 436.8393592778183 311.1621302911434 436.14542792051697 310.79733374252925 435.5589664777061 310.27706436362735 434.9725050348952 309.7567949847254 434.5275986731857 309.11129085628215 434.0826923114762 308.4657867278389 433.80519900951447 307.7325645801284 433.52770570755274 306.9993424324179 434.11039751634235 295.89795663466026 434.693089325132 284.7965708369026 434.8199663715727 274.1414145565924 434.9468434180134 263.4862582762821 436.98902949384444 253.06535799648046 439.03121556967545 242.6444577166788 447.5808989169899 246.307118480699 456.1305822643044 249.96977924471918 462.8610941949723 258.2799313815338 469.59160612564017 266.5900835183484 474.92433642752746 274.9826369376071 480.25706672941476 283.37519035686574 484.2140579673115 291.85597016496354 488.1710492052082 300.3367499730613 486.72205021613803 305.89124206706396 485.27305122706787 311.44573416106664 485.26834666537457 311.44742741216254 485.2636421036812 311.44912066325844 485.25893754198785 311.45081391435434 485.25423298029455 311.45250716545024 479.1744755939666 304.8599058475389 473.09471820763866 298.2673045296276 467.9410660778492 289.1140254354238 462.78741394805974 279.96074634122 455.4110841451803 271.7841781616094 448.03475434230097 263.60760998199885 447.88821260523935 274.35596219485444 447.74167086817766 285.1043144077101 446.95045989751384 294.4991294949908 446.15924892684995 303.89394458227156 446.25335690848806 304.672251037544 446.3474648901262 305.45055749281653 446.2525713522476 306.22876856122645 446.15767781436904 307.00697962963636 445.8792979738538 307.73986564732365 445.60091813333855 308.47275166501095 445.15523143959695 309.1177172621931 444.7095447458554 309.7626828593753 444.1224545304683 310.2822426052405 443.5353643150812 310.8018023511057 442.84099228895116 311.1657594088129 442.1466202628211 311.5297164665201 441.3853233607317 311.71691763477486 440.62402645864233 311.9041188030297 439.84005129231247 311.9036839411375 439.0560761259826 311.90324907924526 438.29498736891424 311.71520346139965 437.5338986118458 311.52715784355405 436.83993077835936 311.1624306898995 436.1459629448729 310.79770353624497 435.55944947805654 310.27749280608856 434.9729360112401 309.75728207593215 434.5279651013424 309.11182244135256 434.0829941914447 308.46636280677296 433.8054275686558 307.7331684120587 433.5278609458669 306.99997401734447 432.2786251531603 302.399843379394 431.02938936045376 297.7997127414435 427.064024806124 287.5131168011869 423.09866025179423 277.2265208609303 416.67118153223396 270.3385065466593 410.2437028126737 263.4504922323883 410.75986353803955 272.74747676266924 411.27602426340536 282.0444612929502 411.8868923369607 294.13538734447803 412.49776041051604 306.2263133960059 412.75284417574494 306.9234701284087 413.00792794097384 307.62062686081157 413.08875323255756 308.3585716480811 413.1695785241413 309.09651643535074 413.07144777233543 309.83235989177876 412.9733170205296 310.5682033482068 412.7019335892398 311.2591782175323 412.43055015795 311.9501530868577 412.0016868649536 312.55609987721004 411.5728235719573 313.1620466675624 411.0114059719935 313.64774772301604 410.4499883720297 314.1334487784697 409.7886460823863 314.4706751308612 409.12730379274296 314.80790148325264 408.4044740583672 314.9770535211364 407.68164432399146 315.14620555902013 406.9393380430072 315.1374521580068 406.19703176202296 315.1286987569934 405.4783918103582 314.94254866516115 404.75975185869333 314.7563985733289 404.1065456241039 314.40367084276124 403.45333938951444 314.0509431121936 402.90353124904544 313.55213829516396 402.35372310857645 313.05333347813433 401.9392679371846 312.4374421340448 401.52481276579266 311.82155078995515 399.0086201359934 308.09479877268996 396.4924275061941 304.3680467554247 391.50708761850234 289.78119177042214 386.5217477308106 275.1943367854196 383.05878457655353 264.6621187101414 379.5958214222964 254.1299006348632 379.45256570273625 253.39161684352325 379.3093099831761 252.6533330521833 379.3469056682254 251.90221939752934 379.38450135327474 251.15110574287536 379.600763379952 250.43081698580676 379.8170254066293 249.71052822873816 380.19938461578295 249.0629275856584 380.58174382493667 248.41532694257864 381.10797748136577 247.8780529932909 381.63421113779486 247.34077904400314 382.27373451666267 246.9450581756837 382.9132578955305 246.54933730736428 383.62890186800934 246.31816883547276 384.3445458404882 246.08700036358127 385.09471714527325 246.03381981056543 385.8448884500583 245.98063925754957 386.58598709566877 246.10853747964933 387.32708574127923 246.23643570174906 388.0160390396119 246.53797924828672 388.7049923379446 246.83952279482438 389.30175829093 247.2971859407072 389.89852424391546 247.75484908659004 390.3684187863272 248.34203242827613 390.83831332873893 248.9292157699622 391.15402616769416 249.61179218404405 391.4697390066493 250.29436859812589 391.46964311834836 250.29407175018605 Z" fill="hsl(10, 75%, 40%)"></path><path d="M 501.0361375714572 250.04660243700363 Q 501.0361375714572 250.04660243700363 504.2540192756752 258.82154401932974 507.4719009798933 267.59648560165584 512.8375032376713 282.11418181844726 518.2031054954493 296.6318780352386 522.3378136479078 309.9668721694351 526.4725218003662 323.3018663036315 528.9797484977064 333.77834220340134 531.4869751950465 344.25481810317115 532.020069244631 353.75611145530326 532.5531632942154 363.25740480743536 528.960673365485 372.00561897651113 525.3681834367547 380.7538331455869 517.0482407574111 385.2961316505735 508.72829807806755 389.8384301555601 498.97308940948284 386.85197599619534 489.2178807408981 383.86552183683057 481.3444805257683 375.74223708909574 473.47108031063846 367.61895234136085 470.5296049112378 357.6803617899046 467.5881295118371 347.7417712384484 467.59240498129105 347.73917887255055 467.596680450745 347.7365865066527 467.60095592019894 347.7339941407549 467.6052313896529 347.73140177485703 475.4115717176853 353.60822733257845 483.2179120457178 359.48505289029987 492.187589987907 368.07932586769675 501.1572679300962 376.67359884509364 509.6109765225509 372.9139595567184 518.0646851150055 369.1543202683432 518.7114598161226 357.99948607645814 519.3582345172396 346.84465188457307 516.9728844641857 336.7003741352474 514.5875344111316 326.5560963859217 510.6535072410943 313.8009980511715 506.719480071057 301.04589971642133 501.30600402312086 286.46551652851315 495.8925279751848 271.8851333406049 492.61819764327004 263.1311032203553 489.3438673113553 254.37707310010575 489.16971627178134 253.64605451748628 488.99556523220735 252.9150359348668 489.00142468345484 252.16358239701452 489.0072841347024 251.4121288591622 489.19281352518965 250.68391488100394 489.37834291567685 249.95570090284565 489.7327592685116 249.29305031500695 490.0871756213464 248.63039972716822 490.5898802414497 248.0718258129488 491.092584861553 247.51325189872935 491.71436053278507 247.0912190002681 492.3361362040171 246.66918610180682 493.0408452951518 246.40822279099143 493.7455543862866 246.14725948017605 494.4922391718367 246.06253295689243 495.2389239573867 245.97780643360883 495.9841870825331 246.0742410073711 496.72945020767946 246.1706755811334 497.4299769445727 246.44266646998352 498.1305036814658 246.71465735883365 498.7455793832434 247.14639643953223 499.360655085021 247.5781355202308 499.8545315229965 248.14453009712247 500.34840796097205 248.71092467401414 500.69238101336566 249.379055867678 501.03635406575927 250.04718706134184 501.0362458186082 250.04689474917274 Z" fill="hsl(10, 75%, 40%)"></path><path d="M 538.7368815784696 241.0344120138828 Q 538.7368815784696 241.0344120138828 540.3371971075137 249.31643521336247 541.9375126365578 257.59845841284215 544.8803093155575 270.74157937556436 547.8231059945572 283.8847003382866 551.5661689741326 295.4138224199686 555.3092319537078 306.9429445016505 561.8429093934756 308.51450360478964 568.3765868332433 310.0860627079288 568.3805254181569 310.0891428944294 568.3844640030705 310.09222308092995 568.3884025879842 310.0953032674305 568.3923411728978 310.0983834539311 569.6292086285931 313.61807212030885 570.8660760842885 317.13776078668656 560.3640066889407 319.16546959237155 549.861937293593 321.19317839805655 545.4996406880437 313.0904310321765 541.1373440824942 304.98768366629656 538.4306079274163 295.8965503080326 535.7238717723385 286.80541694976864 532.7124667383005 273.40159773770154 529.7010617042624 259.9977785256344 528.0552712152402 251.72466421290704 526.4094807262179 243.4515499001797 526.3544201128107 242.69643133061646 526.2993594994035 241.9413127610532 526.4266162906179 241.19496067635197 526.5538730818322 240.44860859165075 526.8560511069836 239.7544010100416 527.158229132135 239.06019342843246 527.617765790204 238.4584777271757 528.0773024482728 237.85676202591895 528.6674894471009 237.38250994984313 529.2576764459291 236.9082578737673 529.9442120894148 236.58903297581656 530.6307477329005 236.26980807786583 531.3737305371877 236.1241637241078 532.1167133414749 235.9785193703498 532.8729611110695 236.01492041746798 533.629208880664 236.05132146458615 534.3547684596649 236.2676522820117 535.0803280386659 236.48398309943727 535.7330298702515 236.8676705298972 536.385731701837 237.25135796035713 536.9276407248883 237.7801020723656 537.4695497479395 238.3088461843741 537.8691701845753 238.95191634529823 538.2687906212112 239.5949865062224 538.5028965128782 240.3150074480948 538.7370024045453 241.0350283899672 538.7369419915074 241.03472020192498 Z" fill="hsl(10, 75%, 40%)"></path><path d="M 622.5827230878141 263.34039585739055 Q 622.5827230878141 263.34039585739055 618.691221066051 264.31956891867344 614.7997190442878 265.29874197995633 605.6020389456296 272.285007876911 596.4043588469713 279.27127377386563 593.7030211318548 289.2155357103892 591.0016834167384 299.15979764691275 600.0331361379783 301.11092621937894 609.0645888592184 303.0620547918451 613.0094253738293 294.6260340096559 616.9542618884402 286.1900132274667 619.5962002053951 277.0816393613817 622.23813852235 267.97326549529674 622.9172395892144 260.6889976370578 623.596340656079 253.40472977881893 623.579930515185 252.6111017778993 623.5635203742911 251.81747377697965 623.7375206521442 251.0429812980782 623.9115209299973 250.26848881917675 624.2658187222733 249.55814540155663 624.6201165145493 248.8478019839365 625.1341200169145 248.24289282040513 625.6481235192797 247.63798365687379 626.2919588240262 247.17366609643716 626.9357941287727 246.7093485360005 627.6720414977383 246.41260873708703 628.4082888667037 246.11586893817355 629.1941575682116 246.00395343183837 629.9800262697195 245.8920379255032 630.7698415779141 245.97145124623282 631.5596568861087 246.05086456696245 632.3075146981685 246.31699120882485 633.0553725102283 246.58311785068727 633.7178072949785 247.02049052075353 634.3802420797286 247.45786319081978 634.9187530963551 248.04106176895573 635.4572641129815 248.6242603470917 635.8405530758962 249.31938930453467 636.2238420388107 250.01451826197763 636.42963217548 250.7811766710605 636.6354223121494 251.54783508014336 640.2805790588827 263.48756926015443 643.9257358056159 275.4273034401655 647.9467263551355 284.18761050650266 651.9677169046552 292.9479175728399 658.4390636538708 301.9841580760908 664.9104104030864 311.0203985793417 672.0989223007499 318.8330989408567 679.2874341984134 326.6457993023717 679.2862711176563 326.6506621454858 679.2851080368991 326.6555249885999 679.283944956142 326.660387831714 679.2827818753849 326.6652506748281 675.0622220134288 328.4633476098696 670.8416621514727 330.26144454491106 662.9720778761923 324.9098347026202 655.1024936009119 319.5582248603293 647.7589549061732 309.25559008681006 640.4154162114346 298.95295531329083 636.051336672627 289.5151922811267 631.6872571338195 280.0774292489625 627.6418453499142 266.7414054862885 623.596433566009 253.40538172361454 623.5799440623971 252.61175536767712 623.5634545587852 251.8181290117397 623.7373773865206 251.04361913668296 623.911300214256 250.26910926162623 624.2655269704189 249.55873041777866 624.6197537265817 248.8483515739311 625.1336967354606 248.24339101307413 625.6476397443395 247.63843045221714 626.2914286141108 247.1740485105717 626.9352174838822 246.7096665689263 627.6714351751866 246.41285314675974 628.4076528664912 246.1160397245932 629.1935103725191 246.00404563194758 629.9793678785469 245.89205153930197 630.7691911241245 245.97138587810383 631.559014369702 246.05072021690572 632.3068987906868 246.31677207165643 633.0547832116714 246.58282392640712 633.7172617303763 247.02013035080813 634.3797402490812 247.45743677520915 634.9183095828728 248.04058149932757 635.4568789166644 248.62372622344597 635.8402373905583 249.31881684851703 636.223595864452 250.01390747358812 636.4294626659332 250.78054529982407 636.6353294674144 251.54718312606002 636.1598525294478 259.50117982394966 635.6843755914811 267.45517652183935 633.4641658859302 276.34468561600625 631.2439561803794 285.23419471017314 627.3767738484344 294.75781868237 623.5095915164894 304.28144265456683 616.695878960357 313.03522859394786 609.8821664042247 321.78901453332884 599.8133215065245 322.69946773365155 589.7444766088245 323.6099209339742 584.1504182141207 314.311280820129 578.5563598194169 305.0126407062839 579.3732466279274 294.65542157407594 580.1901334364379 284.29820244186806 585.6571081512436 274.92264877325397 591.1240828660492 265.54709510463994 601.4182161821209 259.2680955381719 611.7123494981926 252.98909597170388 615.6115050997205 252.02060860207854 619.5106607012484 251.0521212324532 620.2681963483261 250.95759172094364 621.0257319954038 250.86306220943408 621.7838767376425 250.95257553221575 622.5420214798812 251.04208885499744 623.2567119092407 251.31044249354454 623.9714023386003 251.57879613209164 624.6011006137469 252.01039336032323 625.2307988888933 252.44199058855486 625.738906916489 253.01174695528766 626.2470149440845 253.58150332202047 626.604001461692 254.25630456045008 626.9609879792995 254.93110579887966 627.1461049137426 255.67173242932313 627.3312218481858 256.4123590597666 627.333710194537 257.17576582766435 627.3361985408883 257.93917259556207 627.1559136763408 258.6809902636954 626.9756288117933 259.4228079318287 626.6230489011452 260.09992202247145 626.2704689904971 260.77703611311426 625.7660859947212 261.35009272350436 625.2617029989453 261.92314933389446 624.6348316814544 262.35884238691096 624.0079603639635 262.79453543992753 623.2950345151837 263.06754243485824 622.5821086664038 263.34054942978895 622.5824158771089 263.34047264358975 Z" fill="hsl(10, 75%, 40%)"></path><path d="M 672.5345093188874 242.80735141757012 Q 672.5345093188874 242.80735141757012 676.2595975660083 249.14103134791424 679.9846858131292 255.47471127825838 685.5025300881341 263.3780558601887 691.0203743631389 271.281400442119 699.4170228818653 282.7031258217578 707.8136714005915 294.1248512013966 712.9903039078661 284.4110593124519 718.1669364151406 274.6972674235072 717.2324194501819 268.02495284023405 716.2979024852232 261.35263825696086 716.2779885566291 260.58003916475434 716.258074628035 259.80744007254776 716.4236402340227 259.0525268643282 716.5892058400104 258.2976136561086 716.9306282997809 257.6042619230072 717.2720507595515 256.9109101899058 717.7694865837011 256.3194175672274 718.2669224078508 255.72792494454896 718.8914606029082 255.27266901131478 719.5159987979655 254.8174130780806 720.23134117469 254.52485333052033 720.9466835514146 254.23229358296007 721.7112543772608 254.1194336073478 722.4758252031071 254.00657363173548 723.2451875857537 254.07997285515643 724.0145499684003 254.1533720785774 724.7439885300195 254.40876453471776 725.4734270916387 254.66415699085812 726.1205468287566 255.0866992581674 726.7676665658745 255.50924152547674 727.2948568489651 256.0743754275259 727.8220471320556 256.6395093295751 728.1986676370957 257.31438925742435 728.5752881421357 257.9892691852736 728.779449667677 258.73467108580724 728.9836111932182 259.4800729863408 734.8539612907686 270.3727648240498 740.7243113883189 281.26545666175883 746.819801068353 290.7248938667547 752.915290748387 300.1843310717506 761.300842894282 306.7725076886991 769.6863950401771 313.36068430564757 776.4522059550418 302.3995737186534 783.2180168699066 291.43846313165926 784.1905832033665 281.24822590952783 785.1631495368264 271.05798868739635 785.0463243671475 261.39850192554604 784.9294991974684 251.73901516369574 784.6719336839301 241.621336863968 784.4143681703919 231.50365856424028 787.4972974827002 223.90455086139707 790.5802267950086 216.30544315855386 790.5852263033833 216.30537304428253 790.590225811758 216.3053029300112 790.5952253201328 216.30523281573988 790.6002248285075 216.30516270146856 793.9933761008867 226.4539510233462 797.386527373266 236.60273934522385 797.7080026885988 248.57227482739228 798.0294780039317 260.5418103095607 797.726853166738 272.2204065386291 797.4242283295445 283.89900276769754 795.4260607626461 294.24542246247785 793.4278931957477 304.59184215725816 786.5456684886783 314.1996947611402 779.663443781609 323.80754736502234 769.4867154550573 323.5370030264273 759.3099871285056 323.2664586878323 750.8676756250443 315.30247570542974 742.425364121583 307.3384927230272 736.0175489156144 297.40539107357824 729.6097337096458 287.4722894241293 722.9538649432802 274.41278097858003 716.2979961769148 261.3532725330308 716.2780049885112 260.5806754360801 716.2580138001076 259.8080783391294 716.4235039139469 259.0531485781238 716.588994027786 258.29821881711825 716.9303471506762 257.60483294523766 717.2717002735664 256.91144707335707 717.7690769459666 256.3199047100538 718.266453618367 255.72836234675052 718.8909462847084 255.2730439619732 719.5154389510499 254.81772557719592 720.230752068223 254.52509429686089 720.9460651853962 254.23246301652586 721.7106247214219 254.1195265843954 722.4751842574478 254.00659015226495 723.24455397617 254.07991243908077 724.0139236948921 254.15323472589662 724.7433877921096 254.40855423690397 725.4728518893272 254.66387374791134 726.1200138774361 255.08635130113436 726.7671758655451 255.50882885435735 727.2944226593899 256.0739100345526 727.8216694532346 256.63899121474793 728.1983574443842 257.31383347717235 728.5750454355339 257.9886757395967 728.7792815002442 258.7340572202508 728.9835175649546 259.4794387009049 729.0962352312034 260.26653384353517 729.2089528974523 261.0536289861654 730.0463238833803 270.2691656737315 730.8836948693083 279.4847023612976 730.2911807302276 289.1843913984908 729.6986665911467 298.8840804356839 723.6359345555077 307.81685176458524 717.5732025198688 316.74962309348655 707.8240946126327 309.2026057282644 698.0749867053968 301.6555883630423 689.5100696798418 290.0069655508585 680.9451526542866 278.35834273867476 675.0988715126198 270.0829363890827 669.2525903709528 261.80753003949064 665.5116284166577 255.48139729435871 661.7706664623626 249.15526454922676 661.4690652291613 248.46513777398616 661.16746399596 247.77501099874556 661.0397906037426 247.0327591717406 660.9121172115252 246.29050734473563 660.9657920438461 245.53927017702637 661.019466876167 244.78803300931708 661.2513703492498 244.0714724403875 661.4832738223325 243.35491187145794 661.8799276954256 242.7146744352417 662.2765815685187 242.0744369990255 662.8149322998813 241.5477333253969 663.353283031244 241.02102965176832 664.002041651075 240.63847178298573 664.6508002709061 240.25591391420318 665.3722608977391 240.03973613157467 666.0937215245722 239.82355834894616 666.8459528328781 239.78632491535512 667.5981841411839 239.7490914817641 668.3374664119804 239.8929664061203 669.0767486827768 240.0368413304765 669.7601147957503 240.3534625954164 670.4434809087237 240.6700838603563 671.0312135932802 241.14104942308518 671.6189462778366 241.61201498581408 672.0768864827353 242.20995230569795 672.5348266876339 242.80788962558182 672.5346680032607 242.80762052157598 Z" fill="hsl(10, 75%, 40%)"></path><path d="M 870.6489269689745 252.25290783566453 Q 870.6489269689745 252.25290783566453 865.9429792910065 251.60741429464713 861.2370316130385 250.9619207536297 850.1036550661213 252.69483465476597 838.9702785192042 254.42774855590224 833.4117505490595 263.419882037666 827.8532225789149 272.41201551942976 827.5549321962299 283.12680058400656 827.2566418135449 293.8415856485833 832.9338652893183 301.675929983577 838.6110887650917 309.5102743185708 844.960587901874 302.58673179612475 851.3100870386562 295.6631892736787 854.3093470095945 284.45784759222954 857.3086069805328 273.2525059107804 858.3395699378623 263.150227335923 859.3705328951919 253.04794876106547 859.5415699256666 250.69293980129999 859.7126069561415 248.3379308415345 859.853661699494 247.55727448359858 859.9947164428464 246.77661812566262 860.3185012574706 246.0524053229404 860.6422860720949 245.32819252021818 861.129982569352 244.70251455483088 861.6176790666091 244.07683658944356 862.240942303164 243.58605789413684 862.8642055397191 243.09527919883013 863.5868114269797 242.76792385443434 864.3094173142401 242.4405685100386 865.089367964087 242.29566242455076 865.869318613934 242.15075633906295 866.6612832579524 242.19672146098003 867.4532479019707 242.2426865828971 868.21119751784 242.47685141717358 868.9691471337092 242.71101625145008 869.6490296541429 243.11977112691562 870.3289121745764 243.52852600238117 870.8912127955427 244.08811406646848 871.4535134165089 244.64770213055579 871.8655511994978 245.32560009868794 872.2775889824865 246.0034980668201 872.515416272191 246.76030647723837 872.7532435618955 247.51711488765667 872.8030378250637 248.3088479999891 872.8528320882319 249.1005811123215 880.0683519675763 260.7367504811617 887.2838718469208 272.372919850002 891.3240523821697 282.40871626824696 895.3642329174187 292.4445126864919 895.3605558100435 292.44790073627775 895.3568787026683 292.45128878606357 895.3532015952931 292.4546768358494 895.3495244879178 292.4580648856352 890.6688494090386 292.1921833611292 885.9881743301592 291.9263018366232 878.6408363087437 281.56907118013294 871.2934982873284 271.2118405236426 865.5030335883288 259.7752141901221 859.7125688893292 248.3385878566016 859.8535455663407 247.55791739709463 859.9945222433522 246.77724693758768 860.3182346350774 246.05300176000512 860.6419470268025 245.32875658242256 861.1295809538246 244.70302985051399 861.6172148808469 244.0773031186054 862.2404290364161 243.58646209942904 862.8636431919855 243.09562108025267 863.5862163400986 242.76819347690508 864.3087894882117 242.44076587355747 865.0887256435503 242.29578179372933 865.8686617988889 242.1507977139012 866.6606310354596 242.19668363912416 867.4526002720304 242.24256956434715 868.2105733005933 242.47665860249134 868.9685463291561 242.71074764063553 869.6484697216778 243.1194345258054 870.3283931141995 243.52812141097525 870.8907496911606 244.0876532422026 871.4531062681217 244.64718507342997 871.865211838847 245.32504183439443 872.2773174095722 246.00289859535886 872.5152203789285 246.75968321926416 872.7531233482847 247.5164678431695 872.8029967845151 248.30819597211692 872.8528702207456 249.09992410106435 872.8083639540796 249.3645303562186 872.7638576874135 249.6291366113729 871.8723147897865 259.6779750829588 870.9807718921594 269.7268135545448 869.3613331657374 278.9477096084157 867.7418944393154 288.1686056622866 863.2494426928943 299.1992747091484 858.7569909464733 310.2299437560103 849.7315232183344 316.2092197636015 840.7060554901956 322.1884957711927 832.3565042439118 318.05162391258034 824.0069529976281 313.9147520539679 819.2869630138366 305.11068153841006 814.5669730300452 296.3066110228523 814.2078793485045 285.8978785071199 813.8487856669637 275.4891459913876 817.9674006012135 264.45720339164143 822.0860155354632 253.42526079189523 831.5019422450197 246.45332534615164 840.9178689545762 239.4813899004081 851.9406850892259 238.94259696962945 862.9635012238756 238.40380403885078 867.6712641782318 239.05675608499155 872.379027132588 239.70970813113234 873.1169274077213 239.90434779857074 873.8548276828546 240.09898746600913 874.5247027836278 240.46456750587268 875.1945778844009 240.83014754573622 875.7574946384829 241.34542042893133 876.3204113925648 241.86069331212647 876.7436530517598 242.4957113544719 877.1668947109549 243.1307293968173 877.4258624501447 243.8485853198557 877.6848301893345 244.5664412428941 877.7644727913498 245.32541322665014 877.8441153933651 246.08438521040623 877.7398040264347 246.84036176752392 877.6354926595045 247.5963383246416 877.3532899051756 248.30538206210184 877.0710871508467 249.01442579956205 876.6273946464601 249.63532706202932 876.1837021420733 250.25622832449662 875.6043073168307 250.75290030142347 875.024912491588 251.2495722783503 874.3434897999553 251.59314837110168 873.6620671083224 251.93672446385307 872.9182208691536 252.1072360137754 872.174374629985 252.27774756369774 871.4113372216502 252.26528443149812 870.6482998133156 252.2528212992985 870.6486133911451 252.2528645674815 Z" fill="hsl(10, 75%, 40%)"></path><path d="M 906.1887437326452 230.74812352302985 Q 906.1887437326452 230.74812352302985 908.8943336741223 241.63617633158367 911.5999236155994 252.52422914013752 914.0977087057945 261.99836039543607 916.5954937959895 271.4724916507346 920.4603883946004 286.4797253086074 924.3252829932114 301.4869589664802 927.0067029986885 311.98653774196123 929.6881230041656 322.4861165174422 931.8943745729594 331.0759787902934 934.1006261417531 339.66584106314457 934.1907583876562 340.40828313119596 934.2808906335591 341.1507251992474 934.1907200724345 341.89316261483907 934.1005495113097 342.6356000304307 933.8353168604066 343.3348822960852 933.5700842095034 344.03416456173966 933.1452048029541 344.6496493593214 932.7203253964049 345.26513415690323 932.160493245281 345.7610494810584 931.6006610941571 346.25696480521367 930.9384136693856 346.604488034002 930.276166244614 346.9520112627903 929.5499933976381 347.1309443298261 928.8238205506622 347.30987739686196 928.0759274814673 347.30982070388217 927.3280344122722 347.30976401090237 926.6018887011794 347.1307208529055 925.8757429900866 346.95167769490865 925.2135482599424 346.6040540686498 924.5513535297983 346.25643044239104 923.991596569432 345.76043024936143 923.4318396090656 345.2644300563319 923.0070535193136 344.6488808510549 922.5822674295615 344.03333164577793 922.3171407979187 343.3340091769857 922.0520141662757 342.6346867081935 921.5116996475043 333.3517702323246 920.9713851287329 324.0688537564557 919.2149447191086 311.40010019001784 917.4585043094843 298.73134662357995 916.0788099775938 287.21711806032704 914.6991156457033 275.7028894970741 913.6814242249391 264.21109469321163 912.6637328041747 252.7192998893492 915.469966156704 242.93087319888124 918.2761995092332 233.1424465084133 927.7745534000311 227.68232448239246 937.272907290829 222.22220245637163 946.889476104529 227.87615752275647 956.5060449182289 233.5301125891413 964.8115851247169 242.4725947542396 973.117125331205 251.41507691933785 979.4663246708976 260.53011098444244 985.8155240105901 269.64514504954707 990.7335841172106 280.2198130288781 995.6516442238311 290.7944810082091 1000.0612530391401 302.30611787659427 1004.470861854449 313.8177547449795 1002.6172907882559 317.7624546442032 1000.7637197220628 321.707154543427 1000.7590765805967 321.70900960065705 1000.7544334391307 321.71086465788704 1000.7497902976647 321.71271971511703 1000.7451471561986 321.7145747723471 996.5718737401875 319.8531431975962 992.3986003241763 317.99171162284534 988.2418316369084 307.03663237571914 984.0850629496405 296.081553128593 979.5342758255109 286.2216903381079 974.9834887013814 276.36182754762285 969.1805037827799 268.0126126788076 963.3775188641785 259.6633978099924 956.0955634531799 251.71967551104956 948.8136080421813 243.77595321210674 937.6245556562365 245.40001886197837 926.4355032702917 247.02408451185 926.3665246880082 256.2908416886057 926.2975461057247 265.55759886536146 927.2819668243137 275.23035550480995 928.2663875429027 284.9031121442585 929.8848982536381 297.4749001703155 931.5034089643733 310.0466881963725 932.8019433018009 324.8559634218825 934.1004776392284 339.6652386473925 934.1906841288874 340.40767169850716 934.2808906185464 341.1501047496218 934.190794301614 341.89255117855737 934.1006979846817 342.63499760749295 933.8355352633312 343.334306392916 933.5703725419805 344.0336151783391 933.1455546860353 344.6491424607841 932.7207368300901 345.26466974322904 932.1609542732976 345.76064104811974 931.6011717165053 346.2566123530104 930.9389590473678 346.60420180480344 930.2767463782303 346.95179125659644 929.550591428192 347.1307969400222 928.8244364781536 347.309802623448 928.0765434070288 347.30982071977525 927.328650335904 347.3098388161025 926.602486724126 347.1308682735719 925.8763231123482 346.95189773104124 925.2140936231526 346.60434032599346 924.5518641339569 346.2567829209457 923.99205757637 345.76083870609204 923.4322510187832 345.2648944912384 923.0074033762346 344.6493877676481 922.5825557336861 344.03388104405775 922.3173591711221 343.33458509142525 922.0521626085581 342.63528913879276 919.9098355386978 333.9761096548582 917.7675084688376 325.3169301709236 915.1846040056141 314.96555812478323 912.6016995423906 304.6141860786428 908.7505908633891 289.5987095338165 904.8994821843877 274.5832329889902 902.3425916318063 265.0525532397339 899.7857010792247 255.5218734904777 896.9729171498523 244.66101438802082 894.1601332204798 233.8001552855639 894.064915695591 233.05830106834065 893.9696981707023 232.31644685111738 894.054790544866 231.5733631784956 894.1398829190298 230.83027950587385 894.4003396194616 230.12915443582 894.6607963198935 229.42802936576615 895.0814795909268 228.80961232029392 895.5021628619602 228.19119527482172 896.0586225721167 227.69142868167023 896.6150822822734 227.19166208851874 897.2749769670539 226.83959240556334 897.9348716518344 226.48752272260793 898.6598482011543 226.30361225636392 899.3848247504743 226.1197017901199 900.1327474932242 226.11463942552638 900.8806702359741 226.10957706093285 901.6080698672044 226.28365702285785 902.3354694984349 226.45773698478285 903.0000695174019 226.80084173766016 903.6646695363688 227.1439464905375 904.2278433587439 227.63613477000922 904.791017181119 228.1283230494809 905.2200331178851 228.74098884961876 905.6490490546512 229.35365464975658 905.9189726794064 230.05118980547056 906.1888963041615 230.74872496118454 906.1888200184034 230.7484242421072 Z" fill="hsl(10, 75%, 40%)"></path><path d="M 209.12788133323266 477.41847223179093 Q 209.12788133323266 477.41847223179093 212.53027747283585 484.07598963113185 215.93267361243906 490.7335070304728 224.55745773829315 505.80667728873914 233.18224186414724 520.8798475470055 240.14559871354487 534.1961439142735 247.10895556294253 547.5124402815417 252.98732142928785 558.9141337543786 258.86568729563317 570.3158272272153 263.49126869215513 579.9090238646883 268.11685008867715 589.5022205021612 272.32325452618926 598.776582937224 276.52965896370137 608.0509453722867 277.973523665524 610.450913288177 279.41738836734663 612.8508812040674 279.640009981139 613.576205943583 279.8626315949313 614.3015306830986 279.9051968302474 615.0590559707447 279.94776206556355 615.8165812583908 279.807797028927 616.5622796888573 279.6678319922905 617.3079781193238 279.35347145820674 617.9985096647954 279.03911092412307 618.6890412102671 278.56862554160335 619.2842721448767 278.09814015908364 619.8795030794862 277.49887456066557 620.3448385533472 276.8996089622475 620.8101740272083 276.20639249266753 621.1185687207164 275.5131760230876 621.4269634142246 274.7662984561284 621.5604934133032 274.01942088916917 621.6940234123819 273.26229078411427 621.6449279472106 272.5051606790593 621.5958324820394 271.78178247318806 621.366964983361 271.05840426731686 621.1380974846824 270.41082073594237 620.7427597422729 269.7632372045678 620.3474219998636 269.22908593296006 619.8085910618871 268.69493466135225 619.2697601239106 268.3052605465141 618.618752869799 267.915586431676 617.9677456156872 268.6694725288131 607.4166561116308 269.4233586259502 596.8655666075742 268.7274963073388 581.6958573493262 268.0316339887275 566.526148091078 266.86297948537424 549.315033753744 265.694324982021 532.1039194164101 265.27204663091504 522.0812637801009 264.84976827980904 512.0586081437916 264.2803713231414 495.43060475186815 263.7109743664738 478.8026013599446 263.53029963868113 467.44156779905444 263.34962491088845 456.08053423816426 266.45982689379196 446.2301006779502 269.57002887669546 436.3796671177361 269.57502882808836 436.3796891647023 269.58002877948127 436.37971121166845 269.58502873087417 436.3797332586346 269.5900286822671 436.3797553056008 272.6047832651914 446.26500525190625 275.61953784811567 456.1502551982117 275.74503848371427 467.2805967381027 275.87053911931287 478.4109382779937 276.45461918917147 494.9599875602841 277.03869925903007 511.5090368425745 278.1369957382076 529.9922361475124 279.23529221738517 548.4754354524501 280.47532019596235 565.3051606849756 281.71534817453954 582.134885917501 280.5662403205788 597.4925960285292 279.4171324666181 612.8503061395573 279.6398266117711 613.5756086132849 279.8625207569242 614.3009110870125 279.90516174455615 615.0584321143475 279.9478027321881 615.8159531416825 279.80791226609426 616.5616655649242 279.6680218000005 617.3073779881657 279.353730320643 617.997940966238 279.0394388412856 618.6885039443105 278.56901298421167 619.283781924482 278.0985871271377 619.8790599046536 277.4993680652633 620.3444553027477 276.9001490033889 620.8098507008418 276.2069633767443 621.1183147144549 275.51377775009973 621.4267787280679 274.7669135398748 621.5603834142355 274.02004932964985 621.693988100403 273.2629143188341 621.6449683484876 272.5057793080183 621.5959485965723 271.78237821901416 621.3671534368585 271.05897713000996 621.1383582771448 270.4113540680992 620.7430852950652 269.7637310061884 620.3478123129855 269.22952585415766 619.8090347928303 268.69532070212693 619.2702572726749 268.30558148851185 618.6192889892297 267.91584227489676 617.9683207057845 265.38534470374634 613.0323413225789 262.8548471325959 608.0963619393732 257.7768449621699 597.049426831968 252.69884279174383 586.0024917245629 247.44919925586532 575.3814221331079 242.19955571998682 564.760352541653 235.83131590108573 552.4437832721819 229.46307608218464 540.127214002711 221.7244337590158 526.3459167570928 213.98579143584695 512.5646195114747 209.44459389247788 504.4737942776103 204.90339634910882 496.38296904374596 201.48896905578965 489.7314549489463 198.07454176247046 483.07994085414657 197.81611423725843 482.3774802871319 197.5576867120464 481.6750197201172 197.47488416053977 480.9311249886788 197.39208160903314 480.18723025724034 197.48971651941594 479.4451365581212 197.58735142979873 478.70304285900204 197.85974925649214 478.00588071286205 198.13214708318557 477.30871856672206 198.56347605170362 476.6970070702509 198.9948050202217 476.0852955737797 199.55999627064818 475.59458742789343 200.1251875210747 475.1038792820072 200.7913921113795 474.7626944672006 201.4575967016843 474.421509652394 202.18609478977737 474.249677846134 202.91459287787046 474.07784603987403 203.66304412064352 474.0853541148141 204.41149536341655 474.09286218975416 205.13639973947377 474.2792737762259 205.861304115531 474.4656853626977 206.52053014847644 474.8201662105369 207.1797561814219 475.17464705837614 207.7349896232472 475.6765947240512 208.2902230650725 476.17854238972626 208.70919372205122 476.79878365132424 209.12816437902995 477.4190249129222 209.1280228561313 477.41874857235655 Z" fill="hsl(10, 75%, 40%)"></path><path d="M 299.15293267059974 527.8725255136818 Q 299.15293267059974 527.8725255136818 305.15447121913814 529.9870825737792 311.15600976767655 532.1016396338765 320.90720280095275 532.8943403060803 330.658395834229 533.6870409782839 321.126934768949 533.0799925535568 311.5954737036691 532.4729441288298 308.0217830602285 542.4069846554826 304.44809241678786 552.3410251821355 304.61899057198843 562.3601564185745 304.789888727189 572.3792876550136 313.12383946480554 576.8140657718418 321.457790202422 581.2488438886701 329.645302427853 579.8528572671726 337.83281465328395 578.4568706456752 337.836076298821 578.4606603248687 337.839337944358 578.4644500040624 337.84259958989503 578.4682396832561 337.8458612354321 578.4720293624497 334.89334813356993 584.7336482124224 331.9408350317078 590.9952670623951 322.0274350046723 592.2930308596234 312.11403497763683 593.5907946568517 303.53953275801456 587.5659196108163 294.9650305383923 581.5410445647808 292.6147750183758 570.9239936416054 290.26451949835933 560.3069427184302 292.5906613546353 549.0828635974551 294.91680321091127 537.8587844764801 299.42976718358875 528.706523450145 303.9427311562662 519.55426242381 313.0140492801364 512.1318162521925 322.0853674040066 504.7093700805749 331.6836897240139 505.5338889906882 341.28201204402114 506.3584079008015 347.6832432144231 514.2848291639266 354.084474384825 522.2112504270516 350.1950870074163 531.3943675329364 346.30569963000767 540.5774846388211 335.7780858628804 543.8491203012367 325.25047209575314 547.1207559636522 316.11696808725605 545.5612735579542 306.98346407875897 544.0017911522563 300.97440877048587 541.8964199286622 294.96535346221276 539.7910487050682 294.28268167184206 539.4539144200583 293.60000988147135 539.1167801350482 293.0178605827182 538.6260638285551 292.435711283965 538.1353475220618 291.9879190214251 537.519569648875 291.5401267588852 536.9037917756881 291.2527172398968 536.1987413747295 290.9653077209084 535.4936909737708 290.85498520021895 534.7403456074707 290.74466267952954 533.9870002411706 290.81783910722504 533.2291443776141 290.89101553492054 532.4712885140576 291.1434378935851 531.7529687716426 291.3958602522497 531.0346490292275 291.81285774253774 530.3976141851329 292.22985523282586 529.7605793410384 292.7871919410094 529.2418538903341 293.34452864919285 528.7231284396298 294.00981213960574 528.352860729883 294.6750956300187 527.9825930201362 295.40965959493997 527.7823030280342 296.1442235598613 527.5820130359324 296.9053751071365 527.5633416252269 297.66652665441165 527.5446702145214 298.41002762035055 527.7087025684798 299.1535285862894 527.8727349224382 299.1532306284446 527.8726302180601 Z" fill="hsl(10, 75%, 40%)"></path><path d="M 364.3905729883029 498.54044154560665 Q 364.3905729883029 498.54044154560665 364.86283613294535 506.1697223121834 365.3350992775878 513.7990030787602 366.3903896179695 527.6270031220638 367.4456799583512 541.4550031653674 368.1694997460113 551.56194973839 368.89331953367144 561.6688963114126 369.433486416089 571.3614824985978 369.9736532985066 581.054068685783 370.1456238421365 585.112344588779 370.31759438576637 589.170620491775 370.2535904320714 589.9333458959588 370.1895864783764 590.6960713001428 369.94490464768285 591.421314259436 369.70022281698925 592.1465572187294 369.28908402879335 592.7921665782626 368.87794524059746 593.4377759377958 368.32424490058645 593.966228851259 367.77054456057544 594.4946817647221 367.1064637585263 594.8752645239556 366.44238295647705 595.2558472831892 365.7065180998065 595.4664404003446 364.9706532431359 595.6770335175 364.2057728318881 595.7053973107138 363.44089242064035 595.7337611039276 362.69145134025484 595.5782470682053 361.9420102598693 595.422733032483 361.25156606115036 595.0923796508878 360.5611218624314 594.7620262692925 359.969803194649 594.276033695884 359.3784845268666 593.7900411224757 358.9206588587752 593.1766552684551 358.4628331906838 592.5632694144343 358.16510937162377 591.8581402944567 357.86738555256375 591.1530111744792 357.7470673048873 590.3971209261281 357.6267490572109 589.6412306777771 357.3147998933175 577.041189692975 357.0028507294241 564.4411487081727 356.5289235068643 554.0235073598744 356.0549962843045 543.605866011576 356.16592218358426 532.1362638300163 356.2768480828641 520.6666616484566 361.4648554577994 510.4671899416047 366.6528628327347 500.26771823475286 375.75686567808486 500.97421658056936 384.860868523435 501.68071492638586 392.4287921069249 508.46334085249634 399.9967156904149 515.2459667786069 403.0679115028704 522.7097561397788 406.1391073153259 530.1735455009507 406.13528380200705 530.1767674174457 406.1314602886883 530.1799893339407 406.1276367753695 530.1832112504358 406.1238132620507 530.1864331669308 396.9250739360713 525.2760088643995 387.72633461009195 520.3655845618682 378.41440857762166 521.2952564099171 369.1024825451514 522.2249282579659 368.9949475127388 532.6997090920584 368.88741248032613 543.1744899261508 369.31857545023604 553.3559824467991 369.749738420146 563.5374749674475 370.03365460597445 576.3537304596559 370.31757079180295 589.1699859518643 370.25364311096826 589.93271775263 370.18971543013356 590.6954495533955 369.94510612495924 591.4207169772457 369.70049681978486 592.1459844010958 369.2894225945805 592.7916348712797 368.87834836937617 593.4372853414635 368.3247008774249 593.9657936223184 367.77105338547364 594.4943019031732 367.10701064502075 594.8749510685839 366.4429679045678 595.2556002339945 365.70712411088823 595.4662669365825 364.97128031720865 595.6769336391707 364.2064027461646 595.7053739202836 363.44152517512055 595.7338142013965 362.69206854707863 595.5783751105597 361.9426119190368 595.4229360197229 361.25213468843197 595.0926516841992 360.56165745782715 594.7623673486754 359.97029019374406 594.2764339095637 359.378922929661 593.790500470452 358.92103592527343 593.1771604020649 358.4631489208859 592.5638203336779 358.16535459040256 591.8587209896077 357.8675602599193 591.1536216455377 357.74716642381975 590.3977434327909 357.6267725877202 589.6418652200441 357.4866071090613 585.6187921532777 357.34644163040235 581.5957190865113 356.87211427523647 572.052519665694 356.3977869200706 562.5093202448767 355.71019732574734 552.5091925192614 355.02260773142405 542.5090647936462 353.93593161034096 528.5525186809293 352.84925548925787 514.5959725682125 352.34768841844624 506.9685614097404 351.8461213476346 499.34115025126835 351.8893498334513 498.5847887305164 351.932578319268 497.82842720976447 352.1555653931465 497.1043911492376 352.378552467025 496.3803550887107 352.76833810975444 495.7307254982654 353.1581237524839 495.08109590782004 353.6920536041949 494.54362928977565 354.22598345590586 494.00616267173126 354.8730254885304 493.61209661118136 355.5200675211549 493.21803055063145 356.24261562135564 492.9902681855302 356.9651637215564 492.76250582042906 357.7212233598009 492.7142847101377 358.47728299804544 492.66606359984627 359.2229119526357 492.80018635756045 359.96854090722593 492.93430911527463 360.6604031882879 493.24298052001427 361.3522654693498 493.55165192475397 361.9501500086011 494.0169319799728 362.5480345478524 494.48221203519165 363.0171922677803 495.07705864221924 363.4863499877082 495.67190524924683 363.79951341958724 496.361745895334 364.11267685146623 497.05158654142116 364.25164492192164 497.79632765580527 364.390612992377 498.5410687701894 364.39059299033994 498.54075515789805 Z" fill="hsl(10, 75%, 40%)"></path><path d="M 467.2484271495983 533.681223105386 Q 467.2484271495983 533.681223105386 463.35189645443245 532.5510887822319 459.4553657592666 531.4209544590777 449.7401887016207 530.2524675489695 440.0250116439748 529.0839806388614 430.5960523411589 534.36474131977 421.167093038343 539.6455020006788 416.496981825068 547.4915168933537 411.8268706117931 555.3375317860288 409.0477310372611 565.5734282150125 406.26859146272915 575.8093246439963 412.7509478340096 585.0722395933126 419.23330420529004 594.3351545426287 429.44694284780746 596.0586136729905 439.6605814903249 597.7820728033524 447.2646017061093 592.7085850558565 454.86862192189375 587.6350973083604 460.6948824385802 578.792544859494 466.52114295526667 569.9499924106277 469.72231723933805 559.6855995227181 472.9234915234094 549.4212066348086 470.13221080481213 540.0314038654517 467.3409300862149 530.6416010960949 467.34151733622326 530.6366357021097 467.34210458623164 530.6316703081246 467.34269183624 530.6267049141395 467.3432790862484 530.6217395201544 476.94329532438746 531.6998033944094 486.5433115625265 532.7778672686645 486.2063222689823 542.369712717778 485.8693329754381 551.9615581668916 483.2035495701296 561.356626668726 480.5377661648211 570.7516951705604 475.4530010294877 579.8919755183394 470.3682358941543 589.0322558661186 463.2291850047557 596.3535623375415 456.09013411535716 603.6748688089643 445.5341134744765 607.3745056186751 434.9780928335958 611.074142428386 423.774047897625 608.3169635976597 412.5700029616542 605.5597847669333 405.0328663183616 599.0150169341387 397.495729675069 592.470249101344 395.43930601174316 583.3766662120643 393.38288234841735 574.2830833227846 395.4793861361388 565.1350124575417 397.57588992386025 555.986941592299 402.47609950949794 546.306824625876 407.37630909513564 536.6267076594529 414.55889184280295 529.258674597165 421.7414745904702 521.8906415348771 430.90704604170634 519.104295159425 440.07261749294247 516.3179487839728 451.5397352265791 517.777470734225 463.0068529602158 519.2369926844771 466.9009719385119 520.3791421137643 470.79509091680796 521.5212915430515 471.4968626135437 521.8218331884414 472.19863431027954 522.1223748338313 472.80808593683105 522.5821329331038 473.4175375633826 523.0418910323765 473.89924776257976 523.6341444232005 474.3809579617769 524.2263978140245 474.70692971420925 524.9167247014983 475.0329014666416 525.6070515889721 475.184189278742 526.3553301419608 475.33547709084246 527.1036086949497 475.3032881078635 527.866348928796 475.27109912488464 528.6290891626422 475.0573041720295 529.3619605791177 474.8435092191743 530.0948319955932 474.4605340691479 530.7552400735384 474.0775589191215 531.4156481514837 473.5476621056374 531.9652099423795 473.0177652921534 532.5147717332752 472.3717444429085 532.9215466800135 471.7257235936636 533.3283216267519 471.00112547076907 533.568667950316 470.27652734787455 533.8090142738803 469.5154656282782 533.8689630346523 468.7544039086818 533.9289117954243 468.00111153528485 533.8049787686111 467.24781916188783 533.6810457417981 467.2481231557431 533.6811344235921 Z" fill="hsl(10, 75%, 40%)"></path><path d="M 503.9657965523952 503.4868376120381 Q 503.9657965523952 503.4868376120381 504.443207778781 510.4665656230587 504.92061900516677 517.4462936340794 506.2570317045738 529.630136486468 507.5934444039809 541.8139793388565 508.75124909765015 551.4091318011907 509.90905379131937 561.0042842635249 511.87500204461475 570.5618545898046 513.8409502979101 580.1194249160843 522.546804077772 577.005042095795 531.2526578576338 573.8906592755059 532.9680823554812 564.5240761629303 534.6835068533286 555.1574930503548 535.4542587842054 544.5934218728044 536.2250107150821 534.0293506952538 536.6204890455327 524.563418011222 537.0159673759833 515.0974853271902 537.0662148862518 513.6835391639058 537.1164623965203 512.2695930006216 537.2359806328087 511.489785085546 537.3554988690971 510.7099771704703 537.658169976055 509.9814339704932 537.9608410830128 509.252890770516 538.4290738016829 508.61795525065037 538.8973065203529 507.98301973078475 539.5038871431261 507.4785943732776 540.1104677658992 506.9741690157705 540.82014179848 506.62957104610047 541.5298158310608 506.28497307643045 542.3013369853315 506.1202305447856 543.0728581396023 505.95548801314084 543.8613855698272 505.9801757632008 544.6499130000522 506.00486351326083 545.4096174549377 506.21754669183224 546.1693219098232 506.4302298704036 546.8560493307568 506.8185473211549 547.5427767516904 507.20686477190617 548.1166145087018 507.74824746635466 548.690452265713 508.2896301608032 549.1180488814028 508.95261291131084 549.5456454970927 509.6155956618185 549.8021490360667 510.36164587977566 550.0586525750407 511.10769609773286 550.1291550395617 511.8934533094188 550.1996575040829 512.6792105211048 550.2869442544657 522.4163781680847 550.3742310048485 532.1535458150647 550.8100770124207 541.650361041822 551.2459230199929 551.1471762685793 551.8868915685777 561.1796170620494 552.5278601171624 571.2120578555193 550.0506298176472 579.9883473694658 547.573399518132 588.7646368834123 547.5685463296795 588.7658396144069 547.5636931412271 588.7670423454015 547.5588399527746 588.768245076396 547.5539867643222 588.7694478073906 543.43859646118 580.2680246192691 539.3232061580379 571.7666014311476 538.7146436440064 561.996640255237 538.1060811299749 552.2266790793263 537.6503533296934 541.4653804547524 537.1946255294118 530.7040818301784 537.1555337552361 521.4871644963005 537.1164419810603 512.2702471624224 537.2358822359598 511.49042729942215 537.3553224908593 510.7106074364219 537.6579207419838 509.9820339729768 537.9605189931085 509.2534605095317 538.4286882158855 508.61847816956896 538.8968574386624 507.9834958296062 539.503387615867 507.479009816559 540.1099177930716 506.9745238035119 540.8195573623071 506.6298548681617 541.5291969315426 506.2851859328116 542.3007016077026 506.1203662498752 543.0722062838627 505.9555465669388 543.86073617892 505.98015546413245 544.6492660739773 506.0047643613261 545.408991793382 506.2173715683887 546.1687175127869 506.42997877545133 546.8554837620318 506.81822755151904 547.5422500112768 507.20647632758676 548.1161419036882 507.7478016355527 548.6900337960998 508.28912694351874 549.1176967079266 508.95206693105 549.5453596197534 509.61500691858123 549.8019377624665 510.36103148245434 550.0585159051797 511.1070560463274 550.1290969450693 511.8928062038382 550.199677984959 512.6785563613489 549.845135949935 521.2281202522868 549.4905939149108 529.7776841432245 548.8914377321812 539.1357069316568 548.2922815494517 548.4937297200893 546.7394325535618 560.217390454018 545.1865835576718 571.9410511879466 539.5525058428311 582.7984097249106 533.9184281279903 593.6557682618745 523.7216055837994 598.0449163024848 513.5247830396085 602.4340643430951 507.5053712940705 592.7327816001741 501.48595954853266 583.0314988572533 499.4359690295531 572.6897759581434 497.38597851057364 562.3480530590335 496.2589264581463 552.8108481974516 495.1318744057189 543.2736433358697 493.76165580696556 530.7971531223795 492.39143720821215 518.3206629088893 491.89501026931475 511.3421445820194 491.3985833304173 504.3636262551494 491.4374252570075 503.605350169967 491.4762671835976 502.8470740847845 491.6954533713217 502.12012929201694 491.9146395590458 501.3931844992494 492.3014308963749 500.7398210644078 492.6882222337039 500.08645762956615 493.2201383899391 499.5446490661816 493.7520545461743 499.00284050279697 494.3981805293232 498.6040767500301 495.0443065124722 498.2053129972633 495.76708945003617 497.97277022316086 496.48987238760014 497.7402274490584 497.24730410128814 497.68742105057714 498.00473581497613 497.6346146520959 498.75279433800074 497.76461373959665 499.5008528610254 497.89461282709743 500.1960609968812 498.19986184750667 500.89126913273697 498.50511086791596 501.4932213519037 498.9678687338254 502.09517357107046 499.4306265997349 502.5688843822876 500.02399780223544 503.0425951935047 500.61736900473596 503.3605325021671 501.3068667816587 503.6784698108294 501.99636455858143 503.82215508561933 502.74191526673576 503.96584036040923 503.4874659748901 503.9658184564022 503.4871517934641 Z" fill="hsl(10, 75%, 40%)"></path><path d="M 653.5794240941888 501.5000508197403 Q 653.5794240941888 501.5000508197403 645.950743487622 501.64662945173876 638.3220628810553 501.7932080837372 625.9559124004584 502.1598744536277 613.5897619198614 502.52654082351825 604.3204315857321 504.10540408883605 595.0511012516027 505.6842673541538 588.8831086529226 512.5246338262154 582.7151160542426 519.3650002982771 584.3312381511288 529.0467059282026 585.947360248015 538.7284115581282 593.2499483198096 546.1130834402015 600.5525363916042 553.4977553222748 607.1420892708462 561.2455786414974 613.7316421500882 568.9934019607201 615.5612432264433 578.6315734987656 617.3908443027983 588.2697450368111 612.345739214139 595.9763047960303 607.3006341254797 603.6828645552495 596.7667854877652 605.9684804790953 586.2329368500506 608.2540964029412 576.5091433234725 607.0734215717481 566.7853497968943 605.892746740555 566.1855563051827 600.5885625569888 565.585762813471 595.2843783734224 565.5904381177515 595.2861508095664 565.595113422032 595.2879232457104 565.5997887263125 595.2896956818545 565.604464030593 595.2914681179984 576.9367615242481 595.0461373462213 588.2690590179031 594.8008065744441 596.0716897414027 588.4696808116234 603.8743204649021 582.1385550488028 599.1277521825627 573.6537095842327 594.3811839002235 565.1688641196625 587.0562734244254 558.2247943272714 579.7313629486274 551.2807245348804 573.7842514768463 541.1933714637977 567.8371400050653 531.106018392715 571.004152283856 520.1310828609166 574.1711645626466 509.15614732911837 582.5152799764185 501.4594680598227 590.8593953901903 493.762788790527 601.9468900666775 491.8873929922978 613.0343847431647 490.01199719406867 625.5449035763183 489.63648610790005 638.055422409472 489.2609750217315 645.6834337279541 489.082946231855 653.3114450464362 488.90491744197845 654.0669686111223 488.9803877636145 654.8224921758083 489.0558580852505 655.5379984141282 489.30994950417096 656.2535046524482 489.56404092309134 656.887408308213 489.98198563409005 657.5213119639777 490.39993034508876 658.0367705269305 490.9574373819255 658.5522290898832 491.5149444187622 658.9192840841263 492.1796114462616 659.2863390783695 492.84427847376105 659.4836572503916 493.5774750130556 659.6809754224138 494.31067155235024 659.6970886307861 495.0697841861271 659.7132018391583 495.828896819904 659.5471735834531 496.56980588622133 659.3811453277477 497.31071495253866 659.0426251779872 497.99035878165057 658.7041050282269 498.67000261076254 658.2127677914207 499.24888027138815 657.7214305546145 499.82775793201375 657.105832774051 500.272225027319 656.4902349934875 500.7166921226243 655.786155241097 501.0009162041469 655.0820754887064 501.2851402856695 654.3304349127786 501.39260223643714 653.5787943368509 501.5000641872048 653.5791092155198 501.5000575034726 Z" fill="hsl(10, 75%, 40%)"></path><path d="M 672.0984257744149 471.262968443466 Q 672.0984257744149 471.262968443466 672.4158633951513 478.8916235010013 672.7333010158876 486.5202785585366 673.2370257989227 498.15137563983063 673.7407505819577 509.7824727211247 674.1474179113754 519.0550330205356 674.5540852407931 528.3275933199465 675.1080848660969 542.8974315499051 675.6620844914006 557.467269779864 675.9877263616049 567.582171117203 676.3133682318091 577.6970724545421 676.5657153232066 587.4792882144395 676.8180624146042 597.261503974337 676.9599632478713 606.8643244976234 677.1018640811384 616.4671450209099 677.1577756991215 622.4817792114317 677.2136873171047 628.4964134019534 677.1249287033404 629.2564958483529 677.0361700895761 630.0165782947524 676.768085490754 630.733330737871 676.5000008919318 631.4500831809895 676.0681713975312 632.0818479351565 675.6363419031305 632.7136126893234 675.0658654636554 633.2236715573434 674.4953890241803 633.7337304253634 673.8194217570967 634.092438761862 673.1434544900133 634.4511470983607 672.4012836446443 634.6376567579669 671.6591127992754 634.8241664175729 670.8938733800246 634.8276374501071 670.128633960774 634.8311084826413 669.384801718643 634.6513391515296 668.6409694765119 634.4715698204178 667.9617759763621 634.1190083276308 667.2825824762122 633.7664468348438 666.7075024761839 633.2615840709074 666.1324224761557 632.7567213069709 665.6948796528708 632.128899919446 665.2573368295858 631.5010785319209 664.9827611924914 630.7867875293483 664.7081855553969 630.0724965267757 664.6125354534217 629.3132505357859 664.5168853514465 628.554004544796 661.3907623657335 617.7381794486517 658.2646393800204 606.9223543525075 655.6598966156351 594.3235604309385 653.0551538512499 581.7247665093696 652.6439498857649 571.1125622910356 652.2327459202799 560.5003580727016 655.4803522190748 549.4598166361211 658.7279585178698 538.4192751995405 668.372974447949 532.9156860270355 678.0179903780281 527.4120968545304 688.160111588375 532.5054836125712 698.302232798722 537.5988703706118 705.1010434639146 547.8636450904601 711.8998541291072 558.1284198103083 714.4881859299855 567.1209463380442 717.076517730864 576.1134728657802 719.0075852796235 586.7784309792323 720.938652828383 597.4433890926844 721.7117457622587 607.2910345694645 722.4848386961345 617.1386800462446 719.5940822385228 622.1170402096291 716.7033257809112 627.0954003730135 716.6984333557014 627.0964319618686 716.6935409304915 627.0974635507238 716.6886485052817 627.098495139579 716.6837560800718 627.0995267284341 712.9080483980629 619.7460595111788 709.1323407160538 612.3925922939236 708.1724058336636 602.5851575814357 707.2124709512732 592.7777228689479 704.7941883850431 582.0931262398938 702.375905818813 571.4085296108397 698.0980443151202 562.1710308714314 693.8201828114273 552.9335321320231 686.0007583352408 546.903179190248 678.1813338590542 540.8728262484728 671.9051500987747 548.2707956660054 665.6289663384952 555.6687650835379 665.6546767659254 567.6496547000844 665.6803871933556 579.6305443166309 668.1274082921894 591.5993578312946 670.5744293910233 603.5681713459583 673.8940568825434 616.031974954052 677.2136843740635 628.4957785621457 677.1250017689875 629.2558698806062 677.0363191639116 630.0159611990666 676.768306241674 630.7327404470612 676.5002933194365 631.4495196950559 676.0685270036704 632.0813276290135 675.6367606879041 632.7131355629709 675.0663352571681 633.2232514760844 674.4959098264321 633.7333673891981 673.819978433562 634.0921433206297 673.1440470406919 634.4509192520613 672.4018948499997 634.6375031278194 671.6597426593077 634.8240870035773 670.8945035909863 634.8276345600359 670.129264522665 634.8311821164946 669.3854143073202 634.6514871695058 668.6415640919752 634.471792222517 667.9623353390721 634.1192986508427 667.283106586169 633.7668050791684 666.7079761027398 633.2619998257562 666.1328456193107 632.757194572344 665.6952400160749 632.1294169422404 665.2576344128389 631.5016393121366 664.9829873480172 630.7873757706991 664.7083402831955 630.0731122292617 664.6126142570996 629.3138758070783 664.5168882310037 628.5546393848948 664.51269780713 622.5515657663051 664.5085073832564 616.5484921477154 664.4494357728289 607.0241233015174 664.3903641624014 597.4997544553195 664.2204403801707 587.7594069227915 664.0505165979398 578.0190593902636 663.7886764986092 567.9545595970519 663.5268363992787 557.8900598038404 663.0065543053774 543.3808638946364 662.4862722114761 528.8716679854323 662.0578066772928 519.6206717117208 661.6293411431094 510.36967543800927 661.0037449476441 498.70785705484866 660.3781487521788 487.04603867168805 660.0463556295069 479.4179938543454 659.7145625068351 471.78994903700277 659.7730016845285 471.04518428073834 659.8314408622219 470.3004195244739 660.0664212309033 469.59128349662205 660.3014015995847 468.88214746877026 660.6992660891857 468.2498551885884 661.0971305787867 467.6175629084065 661.6347552864784 467.0988632329269 662.1723799941699 466.5801635574473 662.8185181466807 466.2052033361798 663.4646562991916 465.8302431149124 664.1817543167392 465.62081505353456 664.8988523342867 465.4113869921567 665.6452324463984 465.37966305943564 666.39161255851 465.34793912671466 667.1238951180013 465.49576311911085 667.8561776774926 465.643587111507 668.5318023875998 465.96236749163666 669.2074270977071 466.2811478717664 669.7871266185346 466.75235710895873 670.3668261393622 467.2235663461511 670.8169083075225 467.81981773740074 671.2669904756829 468.4160691286504 671.5612964944155 469.10270851508324 671.8556025131483 469.78934790151607 671.9770273028166 470.5264677697309 672.0984520924849 471.26358763794576 672.0984389334499 471.26327804070587 Z" fill="hsl(10, 75%, 40%)"></path><path d="M 731.7727387442487 532.6392111152818 Q 731.7727387442487 532.6392111152818 737.2962691470175 528.2654739332065 742.8197995497862 523.8917367511314 750.5158649343023 515.857911381361 758.2119303188183 507.8240860115906 763.0409530965064 499.67584917127084 767.8699758741944 491.52761233095106 771.5741613771524 480.31383068264563 775.2783468801103 469.10004903434026 770.0552088778248 458.771198484018 764.8320708755393 448.44234793369566 756.6278352169578 458.79124261244505 748.4235995583763 469.14013729119443 745.8738518969265 479.9374535737237 743.3241042354766 490.73476985625297 742.8766842175497 503.5424000436632 742.4292641996228 516.3500302310733 744.7855953296057 529.2742998190326 747.1419264595887 542.1985694069919 750.183549878612 555.600725244203 753.2251732976351 569.0028810814141 755.7572679798051 581.591356416707 758.289362661975 594.1798317519999 760.1938153277815 605.0584588700756 762.0982679935879 615.9370859881511 763.3660600659834 622.9194389262161 764.6338521383789 629.9017918642811 764.6540021525971 630.6809416397152 764.6741521668154 631.4600914151492 764.5072480557643 632.2214214443391 764.3403439447133 632.982751473529 763.9960861831692 633.6820132194072 763.6518284216249 634.3812749652853 763.1502252868636 634.9778273023268 762.6486221521022 635.5743796393682 762.0188268418837 636.033550917715 761.3890315316651 636.4927221960619 760.66764777901 636.7878253594426 759.946264026355 637.0829285228234 759.1752186888618 637.196812161517 758.4041733513687 637.3106958002105 757.62827962028 637.2367409917853 756.8523858891913 637.16278618336 756.116738744613 636.9052911847564 755.3810916000349 636.6477961861527 754.7284468885744 636.2217266187879 754.0758021771137 635.795657051423 753.5440916400653 635.2257760985708 753.0123811030168 634.6558951457188 752.632507781776 633.975324315135 752.2526344605351 633.2947534845513 752.0466766103807 632.5430475848859 751.8407187602263 631.7913416852205 748.5463783356915 622.8694533374057 745.2520379111569 613.9475649895911 741.386810625261 602.1560634561074 737.521583339365 590.3645619226237 735.0228720653909 577.5238632493886 732.5241607914168 564.6831645761536 732.610923355698 551.9704082125897 732.6976859199792 539.257651849026 736.8051358299113 530.5091536193444 740.9125857398434 521.7606553896627 749.9435335271304 519.4853029114944 758.9744813144174 517.2099504333261 763.9151307504244 527.7904398499998 768.8557801864314 538.3709292666733 762.2061433255369 548.3511966923888 755.5565064646426 558.3314641181042 745.0222017712777 562.2181559930663 734.4878970779126 566.1048478680283 726.0941235521959 561.333799157643 717.7003500264793 556.5627504472578 723.4710165195219 548.444495715682 729.2416830125644 540.3262409841062 738.7434966523459 547.2504669837267 748.2453102921274 554.1746929833473 756.7361471842556 563.4511613656327 765.2269840763838 572.7276297479182 771.8336355960214 579.850209268546 778.440287115659 586.9727887891739 790.0388846865403 589.3440769758897 801.6374822574215 591.7153651626056 804.2257173449916 594.8860244017371 806.8139524325617 598.0566836408686 806.8142032307067 598.0616773469363 806.8144540288517 598.066671053004 806.8147048269968 598.0716647590717 806.8149556251418 598.0766584651394 799.9913101019021 601.8691865321317 793.1676645786623 605.661714599124 784.3034397310357 603.4817515360558 775.4392148834092 601.3017884729875 767.4023701869569 593.6616930153934 759.3655254905045 586.0215975577994 751.9263418900293 577.7186144572424 744.4871582895541 569.4156313566854 737.7857369658213 561.4417032630687 731.0843156420884 553.467775169452 738.2974174536851 547.2753785035177 745.5105192652816 541.0829818375834 745.4271874498941 552.0071451025781 745.3438556345066 562.9313083675729 747.6251880887083 574.7611174748135 749.9065205429101 586.5909265820543 753.5219834252312 597.7030980898988 757.1374463075521 608.8152695977434 760.8856019522373 619.358210907403 764.6337575969226 629.9011522170626 764.6539855260176 630.6802999735996 764.6742134551124 631.4594477301365 764.5073854778987 632.2207944459308 764.3405575006849 632.982141161725 763.9963696670366 633.681437329883 763.6521818333881 634.380733498041 763.1506383563683 634.9773359924129 762.6490948793486 635.573938486785 762.0193454894068 636.033172742367 761.3895960994649 636.4924069979489 760.6682418607331 636.7875822982293 759.9468876220013 637.0827575985096 759.1758536767272 637.1967183411674 758.4048197314532 637.3106790838252 757.6289186087631 637.2368018651428 756.853017486073 637.1629246464602 756.1173445956732 636.9055032138583 755.3816717052734 636.6480817812565 754.7289843901194 636.222077480493 754.0762970749654 635.7960731797294 753.5445295524803 635.2262454007804 753.0127620299951 634.6564176218313 752.6328206535707 633.9758847819826 752.2528792771462 633.2953519421337 752.0468462574318 632.5436666420119 751.8408132377174 631.7919813418899 750.6459402301682 625.0672552100922 749.4510672226189 618.3425290782944 747.5400682549848 607.31195535303 745.6290692873508 596.2813816277658 743.1996080999103 584.1322722134264 740.7701469124697 571.9831627990872 738.6470094164397 563.0167708230618 736.5238719204095 554.0503788470365 734.503296064107 544.7316334432683 732.4827202078045 535.4128880394999 731.0688644221 526.1153224061745 729.6550086363955 516.8177567728492 729.539098299168 507.3245062984076 729.4231879619405 497.831255823966 731.2838003834491 487.4177518518853 733.1444128049578 477.0042478798046 736.8824342573007 464.6494920163078 740.6204557096437 452.2947361528111 746.3120441385613 443.34489053342725 752.003632567479 434.39504491404347 762.6805608700743 436.63879729668366 773.3574891726696 438.88254967932386 780.2325725132914 448.1456689802444 787.1076558539133 457.4087882811649 786.3222420547668 468.60507178283035 785.5368282556202 479.80135528449586 782.33622753445 488.47895638903117 779.1356268132798 497.1565574935665 773.4028803632045 506.6218689027436 767.6701339131291 516.0871803119206 759.1503463503726 524.9033102508536 750.6305587876161 533.7194401897865 745.1173255490274 538.1101828966273 739.6040923104388 542.5009256034682 738.957163378613 542.8978362076903 738.3102344467873 543.2947468119122 737.5871153955696 543.525298125817 736.863996344352 543.7558494397219 736.1067148869749 543.8066418101131 735.3494334295978 543.8574341805042 734.6020027999447 543.7255155524281 733.8545721702916 543.5935969243518 733.1604330716758 543.2866344146703 732.46629397306 542.9796719049887 731.8657898025072 542.515506189187 731.2652856319542 542.0513404733854 730.7933177200712 541.4569488846747 730.3213498081883 540.862557295964 730.0053489521893 540.1724859014078 729.6893480961901 539.4824145068513 729.5476802806729 538.7367702883237 729.4060124651556 537.9911260697961 729.4469114302143 537.233245904312 729.487810395273 536.4753657388278 729.7088990911367 535.7492976572139 729.9299877870004 535.0232295756001 730.3184165282778 534.3711726888741 730.7068452695552 533.7191158021482 731.2400385595529 533.1789676872033 731.7732318495507 532.6388195722584 731.7729852968997 532.6390153437701 Z" fill="hsl(10, 75%, 40%)"></path><path d="M 874.1394761290809 547.5403369635563 Q 874.1394761290809 547.5403369635563 869.5943113357223 546.7330138557006 865.0491465423637 545.925690747845 855.41338012162 545.046642870808 845.7776137008763 544.1675949937711 838.7536263454485 553.9196118352065 831.7296389900208 563.6716286766418 828.4071217256662 575.5676972512588 825.0846044613116 587.4637658258756 825.8912402631115 596.7130695333503 826.6978760649114 605.9623732408251 836.7982450831794 608.2756284262284 846.8986141014475 610.5888836116319 855.7921442307078 604.3278583493895 864.6856743599681 598.0668330871473 869.3314358587616 588.3950872593825 873.9771973575552 578.7233414316178 875.7688564796579 567.853984956638 877.5605156017607 556.9846284816582 878.0417187500268 549.5084783929259 878.5229218982928 542.0323283041936 878.6586287251141 541.2475888229441 878.7943355519354 540.4628493416946 879.1139050464726 539.7333921911786 879.4334745410099 539.0039350406627 879.9183333092257 538.3721563047416 880.4031920774414 537.7403775688206 881.0251601049459 537.2429962573102 881.6471281324505 536.7456149457998 882.3700566082621 536.4115388838944 883.0929850840738 536.077462821989 883.8748573712119 535.926108526103 884.65672965835 535.7747542302171 885.4521033027498 535.8149184191388 886.2474769471497 535.8550826080606 887.0101247952284 536.0844309372427 887.772772643307 536.3137792664248 888.4583695663013 536.7189820001995 889.1439664892955 537.1241847339742 889.7126655618283 537.6816914704159 890.2813646343611 538.2391982068577 890.7001130396168 538.9166066282503 891.1188614448723 539.5940150496428 891.3633215058624 540.3519541467069 891.6077815668523 541.1098932437711 891.6637452533462 541.9043115605739 891.71970893984 542.6987298773765 894.9735011475384 553.7095605671078 898.2272933552368 564.7203912568391 902.2986141411523 572.9430205713295 906.3699349270678 581.1656498858198 913.3383305076218 587.7438678596061 920.3067260881759 594.3220858333925 929.0997647268314 591.3137637595099 937.8928033654868 588.3054416856273 943.669759987522 580.8173807555193 949.4467166095573 573.3293198254111 954.3975440315651 571.7386461358017 959.3483714535729 570.1479724461923 959.3526510371967 570.1505580146031 959.3569306208205 570.1531435830138 959.3612102044444 570.1557291514246 959.3654897880682 570.1583147198354 957.200962683143 579.1524171720826 955.0364355782177 588.1465196243297 947.6294055587148 596.1854716570167 940.2223755392117 604.2244236897036 930.4197188841467 606.4654745282496 920.6170622290819 608.7065253667955 911.8186080682631 603.8670243043614 903.0201539074442 599.0275232419272 897.4300920973785 590.680872142083 891.8400302873129 582.3342210422388 887.4431310212367 572.3010007712166 883.0462317551605 562.2677805001946 880.7845601996794 552.1503843235348 878.5228886441982 542.0329881468749 878.658516996393 541.2482350988664 878.7941453485878 540.463482050858 879.1136418958123 539.73399294704 879.4331384430368 539.0045038432219 879.9179340309547 538.3726766245829 880.4027296188726 537.7408494059441 881.0246479051362 537.243405900118 881.6465661913999 536.7459623942918 882.3694612559908 536.4118140412094 883.0923563205818 536.0776656881269 883.874213468381 535.9262332057691 884.65607061618 535.7748007234113 885.4514482730219 535.814885374768 886.2468259298638 535.8549700261245 887.009496708962 536.0842420893753 887.7721674880603 536.313514152626 888.4578049278999 536.7186483246824 889.1434423677396 537.1237824967388 889.7121971881024 537.6812323604859 890.2809520084653 538.238682224233 890.6997681524691 538.916048767398 891.1185842964729 539.5934153105632 891.3631201501503 540.3513299578316 891.6076560038275 541.1092446051 891.663699131873 541.9036573215619 891.7197422599187 542.698070038024 891.1848632167789 550.4855883218169 890.6499841736393 558.2731066056098 889.2463448107228 567.8281266792535 887.8427054478062 577.3831467528971 884.7759467120056 586.1250933156018 881.709187976205 594.8670398783064 875.9508648455585 603.4769702114725 870.192541714912 612.0869005446384 861.7544372196164 617.3416726944627 853.3163327243209 622.5964448442868 841.635119037519 622.403354336617 829.9539053507172 622.2102638289472 821.229719440697 613.9751351235223 812.5055335306768 605.7400064180973 812.4203840712839 595.5437334158268 812.3352346118912 585.3474604135562 814.9464713360827 574.8702309510759 817.5577080602742 564.3930014885957 822.3324587613265 554.8725781094196 827.1072094623787 545.3521547302435 835.7005857511167 538.5072611375135 844.2939620398546 531.6623675447837 855.7856238742337 532.5536960339673 867.2772857086128 533.445024523151 871.8212241257035 534.2607544243285 876.3651625427941 535.0764843255062 877.0947149837723 535.3001988495598 877.8242674247506 535.5239133736135 878.4790789938468 535.9157255242517 879.1338905629428 536.30753767489 879.6759035809948 536.8446753115086 880.2179165990467 537.381812948127 880.6156292439789 538.0330576060483 881.0133418889111 538.6843022639696 881.2436390831136 539.4118035730766 881.4739362773162 540.1393048821835 881.5234331370416 540.9007804322093 881.5729299967669 541.6622559822353 881.4387497622022 542.4134487784348 881.3045695276376 543.1646415746344 880.9945107603203 543.8618922563978 880.6844519930029 544.5591429381612 880.2165353230573 545.1619272631042 879.7486186531119 545.7647115880472 879.1500394193804 546.2379957028825 878.551460185649 546.7112798177178 877.8570078413202 547.0275564274539 877.1625554969914 547.3438330371899 876.4125916449464 547.4847201304088 875.6626277929013 547.6256072236278 874.9007403674577 547.582916435852 874.1388529420143 547.5402256480762 874.1391645355476 547.5402813058163 Z" fill="hsl(10, 75%, 40%)"></path></svg>